<svg xmlns="http://www.w3.org/2000/svg" width="70" height="70" viewBox="0 0 70 70">
  <g id="GenAI_Agents_with_Human_Touch" data-name="GenAI Agents with Human Touch" transform="translate(-975 -891)">
    <path id="Path_41" data-name="Path 41" d="M10,0H60A10,10,0,0,1,70,10V60A10,10,0,0,1,60,70H10A10,10,0,0,1,0,60V10A10,10,0,0,1,10,0Z" transform="translate(975 891)" fill="#335aff"/>
    <g id="Group_5" data-name="Group 5" transform="translate(-100.566 -1.085)">
      <path id="Path_9" data-name="Path 9" d="M0,32.337a13.31,13.31,0,0,1,.692-1.6,3.593,3.593,0,0,1,1.868-1.5,6.993,6.993,0,0,0,2.8,6,6.708,6.708,0,0,0,4.15,1.394V33.789a4.183,4.183,0,0,1-3-1.355,3.912,3.912,0,0,1-1.073-2.677c-.014-1.7-.023-3.4,0-5.1a5.359,5.359,0,0,1,3.64-4.882,1.486,1.486,0,0,1,.2-.044c.306.941.556,1.871.912,2.757a6.562,6.562,0,0,0,1.588,2.254L13.9,22.839a5.729,5.729,0,0,1-1.538-2.754A5.372,5.372,0,1,1,22.916,18.07a6.058,6.058,0,0,1,.083.9q.006,16.791,0,33.582a5.339,5.339,0,0,1-5.425,5.4,5.373,5.373,0,0,1-4-8.887c.089-.109.187-.211.321-.361l-2.125-1.893A8.1,8.1,0,0,0,9.4,51.838,5.271,5.271,0,0,1,6.3,49.573a5.108,5.108,0,0,1-.856-2.83c-.006-1.363,0-2.725,0-4.158H4.419A4.038,4.038,0,0,1,.058,39.269C.051,39.241.02,39.22,0,39.2v-6.86" transform="translate(1086.566 891.235)" fill="#fff"/>
      <path id="Path_10" data-name="Path 10" d="M226.5,162.307c-.053.163-.109.325-.158.49a3.833,3.833,0,0,1-3.275,2.734,3.782,3.782,0,0,1-3.726-1.986.627.627,0,0,0-.655-.387q-7.275.014-14.55.007h-.6v-2.858h.556q7.3,0,14.6,0c.258,0,.452,0,.608-.3a3.785,3.785,0,0,1,3.819-2.062,3.83,3.83,0,0,1,3.3,3,1.475,1.475,0,0,0,.087.214Z" transform="translate(908.937 765.267)" fill="#fff" opacity="0.7"/>
      <path id="Path_11" data-name="Path 11" d="M203.356,82.8V79.97h.554c2.974,0,5.947.007,8.921-.013a1.555,1.555,0,0,0,.74-.3c.2-.124.329-.346.515-.492a1.871,1.871,0,0,0,.775-2.1,3.7,3.7,0,0,1,3.5-4.2,3.833,3.833,0,0,1,4.068,3.557,3.786,3.786,0,0,1-3.63,4.028,5.31,5.31,0,0,1-1.358-.181.518.518,0,0,0-.578.162c-.71.728-1.428,1.448-2.161,2.153a.854.854,0,0,1-.524.241c-3.53.013-7.061.01-10.591.008-.061,0-.122-.014-.226-.026" transform="translate(909.089 839.513)" fill="#fff" opacity="0.7"/>
      <path id="Path_12" data-name="Path 12" d="M203.554,224.548h.458c3.4,0,6.806-.006,10.209.013a1.124,1.124,0,0,1,.692.29c.719.673,1.408,1.377,2.1,2.081a.529.529,0,0,0,.614.172,3.642,3.642,0,0,1,3.99,1.081,3.569,3.569,0,0,1,.684,3.988,3.663,3.663,0,0,1-3.407,2.352,3.792,3.792,0,0,1-3.75-4.884.61.61,0,0,0-.186-.737c-.513-.474-.922-1.166-1.521-1.411a5.956,5.956,0,0,0-2.12-.085q-3.6-.006-7.2,0h-.558Z" transform="translate(908.916 707.115)" fill="#fff" opacity="0.7"/>
      <path id="Path_13" data-name="Path 13" d="M208.761,272.847l-5.314-1.313v-2.939l8.177,2.011c0,1.314.01,2.584-.007,3.853a.594.594,0,0,0,.361.625,3.758,3.758,0,0,1,1.9,4.316,3.811,3.811,0,1,1-5.449-4.334.508.508,0,0,0,.34-.537c-.022-.552-.007-1.106-.007-1.682" transform="translate(909.01 668.673)" fill="#fff" opacity="0.7"/>
      <path id="Path_14" data-name="Path 14" d="M203.408,13.606V10.713L208.725,9.4c0-.643.021-1.26-.017-1.873-.008-.127-.218-.274-.365-.356A3.766,3.766,0,0,1,206.365,3.4,3.663,3.663,0,0,1,208.982.2,3.8,3.8,0,0,1,212,7.127a.692.692,0,0,0-.42.733c.02,1.142,0,2.284.012,3.426,0,.238-.048.371-.309.434-2.574.624-5.146,1.261-7.718,1.892a.634.634,0,0,1-.16-.007" transform="translate(909.044 903.086)" fill="#fff" opacity="0.7"/>
    </g>
  </g>
</svg>
