<svg xmlns="http://www.w3.org/2000/svg" width="70" height="70" viewBox="0 0 70 70">
  <g id="ZERO_Coding_Build_in_Minutes" data-name="ZERO Coding Build in Minutes" transform="translate(-289 -891)">
    <g id="Group_4" data-name="Group 4" transform="translate(0 -6)">
      <rect id="Rectangle_10" data-name="Rectangle 10" width="70" height="70" rx="10" transform="translate(289 897)" fill="#335aff"/>
      <path id="Icon_awesome-code" data-name="Icon awesome-code" d="M10.167,18.648,7.943,18a.438.438,0,0,1-.3-.543L12.62.318a.438.438,0,0,1,.543-.3l2.224.645a.438.438,0,0,1,.3.543L10.71,18.349a.437.437,0,0,1-.543.3Zm-4.156-4.09L7.6,12.866a.437.437,0,0,0-.029-.627l-3.3-2.906,3.3-2.906A.434.434,0,0,0,7.6,5.8L6.011,4.11a.438.438,0,0,0-.62-.018L.138,9.013a.435.435,0,0,0,0,.638l5.253,4.925a.435.435,0,0,0,.62-.018Zm11.928.022,5.253-4.925a.435.435,0,0,0,0-.638L17.939,4.088a.441.441,0,0,0-.62.018L15.733,5.8a.437.437,0,0,0,.029.627l3.3,2.909-3.3,2.906a.434.434,0,0,0-.029.627l1.586,1.692A.438.438,0,0,0,17.939,14.58Z" transform="translate(312.835 923.166)" fill="#fff" stroke="#fff" stroke-width="1"/>
      <g id="Ellipse_1" data-name="Ellipse 1" transform="translate(300 908)" fill="none" stroke="#fff" stroke-width="4" opacity="0.5">
        <circle cx="24.5" cy="24.5" r="24.5" stroke="none"/>
        <circle cx="24.5" cy="24.5" r="22.5" fill="none"/>
      </g>
      <line id="Line_8" data-name="Line 8" x1="29" y2="29" transform="translate(310 918)" fill="none" stroke="#fff" stroke-width="4" opacity="0.5"/>
    </g>
  </g>
</svg>
